<mxfile host="app.diagrams.net" modified="2023-06-20T16:22:19.818Z" agent="Mozilla/5.0 (Windows NT 10.0; Win64; x64) AppleWebKit/537.36 (KHTML, like Gecko) Chrome/114.0.0.0 Safari/537.36" etag="M2syABiAk8FfcpUija9i" version="21.5.0" type="device">
  <diagram name="Page-1" id="5BYSMfyce9-6_HfdJoZC">
    <mxGraphModel dx="880" dy="452" grid="1" gridSize="10" guides="1" tooltips="1" connect="1" arrows="1" fold="1" page="1" pageScale="1" pageWidth="850" pageHeight="1100" math="0" shadow="0">
      <root>
        <mxCell id="0" />
        <mxCell id="1" parent="0" />
        <mxCell id="x3TrV7ytsA-RZId8P_sm-10" value="1" style="edgeStyle=orthogonalEdgeStyle;rounded=0;orthogonalLoop=1;jettySize=auto;html=1;entryX=0;entryY=0.5;entryDx=0;entryDy=0;strokeWidth=3;" parent="1" source="x3TrV7ytsA-RZId8P_sm-1" target="x3TrV7ytsA-RZId8P_sm-2" edge="1">
          <mxGeometry relative="1" as="geometry" />
        </mxCell>
        <mxCell id="x3TrV7ytsA-RZId8P_sm-18" value="6" style="edgeStyle=orthogonalEdgeStyle;rounded=0;orthogonalLoop=1;jettySize=auto;html=1;entryX=0.5;entryY=0;entryDx=0;entryDy=0;strokeWidth=3;" parent="1" source="x3TrV7ytsA-RZId8P_sm-1" target="x3TrV7ytsA-RZId8P_sm-12" edge="1">
          <mxGeometry relative="1" as="geometry" />
        </mxCell>
        <mxCell id="x3TrV7ytsA-RZId8P_sm-1" value="&lt;b&gt;WEB APLICATION&lt;br&gt;CONTROLLER&lt;br&gt;&lt;/b&gt;" style="rounded=0;whiteSpace=wrap;html=1;" parent="1" vertex="1">
          <mxGeometry x="160" y="140" width="120" height="50" as="geometry" />
        </mxCell>
        <mxCell id="x3TrV7ytsA-RZId8P_sm-6" value="3" style="edgeStyle=orthogonalEdgeStyle;rounded=0;orthogonalLoop=1;jettySize=auto;html=1;strokeWidth=3;" parent="1" source="x3TrV7ytsA-RZId8P_sm-2" target="x3TrV7ytsA-RZId8P_sm-5" edge="1">
          <mxGeometry relative="1" as="geometry" />
        </mxCell>
        <mxCell id="x3TrV7ytsA-RZId8P_sm-17" value="2" style="edgeStyle=orthogonalEdgeStyle;rounded=0;orthogonalLoop=1;jettySize=auto;html=1;entryX=0;entryY=0.5;entryDx=0;entryDy=0;strokeWidth=3;" parent="1" source="x3TrV7ytsA-RZId8P_sm-2" target="x3TrV7ytsA-RZId8P_sm-15" edge="1">
          <mxGeometry relative="1" as="geometry" />
        </mxCell>
        <mxCell id="x3TrV7ytsA-RZId8P_sm-19" value="5" style="edgeStyle=orthogonalEdgeStyle;rounded=0;orthogonalLoop=1;jettySize=auto;html=1;entryX=1;entryY=0.5;entryDx=0;entryDy=0;strokeWidth=3;" parent="1" source="x3TrV7ytsA-RZId8P_sm-2" target="x3TrV7ytsA-RZId8P_sm-12" edge="1">
          <mxGeometry relative="1" as="geometry">
            <Array as="points">
              <mxPoint x="450" y="333" />
              <mxPoint x="280" y="333" />
            </Array>
          </mxGeometry>
        </mxCell>
        <mxCell id="x3TrV7ytsA-RZId8P_sm-2" value="&lt;b&gt;MICROCONTROLLER&lt;/b&gt;" style="whiteSpace=wrap;html=1;rounded=0;" parent="1" vertex="1">
          <mxGeometry x="390" y="132.5" width="120" height="65" as="geometry" />
        </mxCell>
        <mxCell id="x3TrV7ytsA-RZId8P_sm-20" value="4" style="edgeStyle=orthogonalEdgeStyle;rounded=0;orthogonalLoop=1;jettySize=auto;html=1;entryX=0.5;entryY=0;entryDx=0;entryDy=0;strokeWidth=3;" parent="1" source="x3TrV7ytsA-RZId8P_sm-5" target="x3TrV7ytsA-RZId8P_sm-1" edge="1">
          <mxGeometry relative="1" as="geometry" />
        </mxCell>
        <mxCell id="x3TrV7ytsA-RZId8P_sm-5" value="&lt;b&gt;CAMERA&lt;/b&gt;" style="whiteSpace=wrap;html=1;rounded=0;" parent="1" vertex="1">
          <mxGeometry x="390" y="10" width="120" height="60" as="geometry" />
        </mxCell>
        <mxCell id="x3TrV7ytsA-RZId8P_sm-12" value="&lt;b&gt;TELEGRAM&lt;br&gt;MESSENGER&lt;br&gt;&lt;/b&gt;" style="whiteSpace=wrap;html=1;rounded=0;" parent="1" vertex="1">
          <mxGeometry x="160" y="300" width="120" height="65" as="geometry" />
        </mxCell>
        <mxCell id="x3TrV7ytsA-RZId8P_sm-15" value="&lt;b&gt;CONTROL GEARBOX&lt;/b&gt;" style="whiteSpace=wrap;html=1;rounded=0;" parent="1" vertex="1">
          <mxGeometry x="610" y="135" width="120" height="60" as="geometry" />
        </mxCell>
      </root>
    </mxGraphModel>
  </diagram>
</mxfile>
